# xmcd
#
# Track frame offsets: 
#        150
#        12612
#        23991
#        36097
#        47612
#        57708
#        70168
#        81602
#        98068
#        116848
#        132558
#        145626
#        157144
#        170507
#
# Disc length: 2443 seconds
#
# Revision: 0
# Processed by: cddbd v1.5.2PL0 Copyright (c) Steve Scherf et al.
# Submitted via: ExactAudioCopy v0.99pb3
#
DISCID=cf09890e
DTITLE=Rewolfinger - How We Lost Our Way
DYEAR=2009
DGENRE=Trash Country
TTITLE0=The Train That Carried My Girl From Town
TTITLE1=I Wish I Had Someone To Call My Own
TTITLE2=Between The Devil And Me
TTITLE3=Pistol Packing Mama
TTITLE4=20 Miles To Texas, 25 To Hell
TTITLE5=Hammer
TTITLE6=Your Footsteps In The Snow
TTITLE7=When I Was A Young Man
TTITLE8=Wicked Path Of Sin
TTITLE9=The Only Hell My Momma Ever Raised
TTITLE10=The Crime I Didn't Do
TTITLE11=Hush Little Baby
TTITLE12=Between The Devil And Me (Radio Edit)
TTITLE13=The Crime I Didn't Do (Radio Edit)
EXTD=
EXTT0=
EXTT1=
EXTT2=
EXTT3=
EXTT4=
EXTT5=
EXTT6=
EXTT7=
EXTT8=
EXTT9=
EXTT10=
EXTT11=
EXTT12=
EXTT13=
PLAYORDER=
